<svg xmlns="http://www.w3.org/2000/svg" width="512" height="512" class="hovered-paths"><path fill="#95a8b8" d="M192.375 392.64h80.156v64.126h-80.156zm0 0" data-original="#95a8b8"/><path fill="#5b788c" d="M192.375 392.64h80.156v16.032h-80.156zm0 0" data-original="#5b788c"/><path fill="#8ae0ff" d="M448.875 392.64H16.031a8.017 8.017 0 01-8.015-8.015V80.031c0-4.43 3.59-8.015 8.015-8.015h432.844a8.012 8.012 0 018.016 8.015v304.594a8.015 8.015 0 01-8.016 8.016zm0 0" data-original="#8ae0ff"/><path fill="#2ac3f2" d="M32.063 72.016V392.64H16.03a8.012 8.012 0 01-8.015-8.016V80.031a8.012 8.012 0 018.015-8.015zm0 0" data-original="#2ac3f2" class="hovered-path"/><path fill="#95a8b8" d="M456.89 344.547v40.078a8.012 8.012 0 01-8.015 8.016H16.031a8.012 8.012 0 01-8.015-8.016v-40.078zm0 0" data-original="#95a8b8"/><path fill="#5b788c" d="M32.063 344.547v48.094H16.03a8.012 8.012 0 01-8.015-8.016v-40.078zm0 0" data-original="#5b788c"/><path fill="#8ae0ff" d="M448.875 424.703H312.609a8.017 8.017 0 01-8.015-8.015V216.297c0-4.43 3.59-8.016 8.015-8.016h136.266a8.012 8.012 0 018.016 8.016v200.39a8.015 8.015 0 01-8.016 8.016zm0 0" data-original="#8ae0ff"/><path fill="#2ac3f2" d="M328.64 208.281v216.422h-16.03a8.015 8.015 0 01-8.016-8.015V216.297c0-4.43 3.59-8.016 8.015-8.016zm0 0" data-original="#2ac3f2" class="hovered-path"/><path fill="#95a8b8" d="M456.89 392.64v24.048a8.012 8.012 0 01-8.015 8.015H312.609a8.015 8.015 0 01-8.015-8.015V392.64zm0 0" data-original="#95a8b8"/><path fill="#5b788c" d="M328.64 392.64v32.063h-16.03a8.015 8.015 0 01-8.016-8.015V392.64zm0 0" data-original="#5b788c"/><path fill="#8ae0ff" d="M496.969 352.563h-80.156a8.017 8.017 0 01-8.016-8.016V184.234c0-4.43 3.59-8.015 8.015-8.015h80.157a8.012 8.012 0 018.015 8.015v160.313a8.015 8.015 0 01-8.015 8.015zm0 0" data-original="#8ae0ff"/><path fill="#2ac3f2" d="M432.844 176.219v176.344h-16.031a8.015 8.015 0 01-8.016-8.016V184.234c0-4.43 3.59-8.015 8.015-8.015zm0 0" data-original="#2ac3f2" class="hovered-path"/><path fill="#95a8b8" d="M504.984 320.5v24.047a8.012 8.012 0 01-8.015 8.015h-80.156a8.015 8.015 0 01-8.016-8.015V320.5zm0 0" data-original="#95a8b8"/><path fill="#5b788c" d="M432.844 320.5v32.063h-16.031a8.015 8.015 0 01-8.016-8.016V320.5zm0 0" data-original="#5b788c"/><path fill="#95a8b8" d="M408.797 208.281v-24.047c0-4.43 3.59-8.015 8.015-8.015h80.157a8.012 8.012 0 018.015 8.015v24.047zm0 0" data-original="#95a8b8"/><path fill="#5b788c" d="M432.844 176.219v32.062h-24.047v-24.047c0-4.43 3.59-8.015 8.015-8.015zm0 0" data-original="#5b788c"/><path d="M192.375 304.969h16.031v15.027h-16.031zm32.063 0h16.03v15.027h-16.03zm32.062 0h16.031v15.027H256.5zm0 0" data-original="#ffffff" fill="#fff"/><path d="M496.969 169.203h-80.156c-8.563 0-16.032 6.465-16.032 15.031v17.032H312.61c-8.562 0-16.03 6.464-16.03 15.03v169.329H16.03c-.277 0-1-.723-1-1v-32.063h265.516v-15.03H15.03v-257.5c0-.278.723 0 1 0h432.844c.277 0 0-.278 0 0v72.14h15.031v-72.14c.001-8.568-6.464-15.032-15.03-15.032H16.031C7.47 65 0 71.465 0 80.031v304.594c0 8.563 7.469 16.031 16.031 16.031H184.36v49.094h-32.062v15.031H312.61V449.75h-33.062v-49.094h17.031v16.031c0 8.563 7.469 16.032 16.031 16.032h136.266c8.566 0 15.031-7.469 15.031-16.031v-56.11h33.063c8.566 0 15.031-7.469 15.031-16.031V184.234c0-8.566-6.465-15.03-15.031-15.03zM264.516 449.75H199.39v-49.094h65.125zm152.296-265.516h80.157c.277 0 0-.277 0 0v17.032h-81.156v-17.032c0-.277.726 0 1 0zm-1 32.063h81.157v97.187h-81.156zm33.063 201.39H312.609c-.273 0-1-.722-1-1v-16.03h137.266v16.03c0 .278.277 1 0 1zm0-32.062H311.609V216.297c0-.277.727 0 1 0h88.172v128.25c0 8.562 7.469 16.031 16.031 16.031h32.063zm48.094-40.078h-80.156c-.274 0-1-.723-1-1v-16.031h81.156v16.03c0 .278.277 1 0 1zm0 0" data-original="#000000"/><path d="M47.094 136.14v-24.045H72.14V97.062H32.062v39.079zm273.531 120.235h15.031v-16.031h17.031v-15.031h-32.062zm104.203-31.062v31.062h15.031v-16.031h17.032v-15.031zm0 0" data-original="#000000"/></svg>