<svg xmlns="http://www.w3.org/2000/svg" width="120" height="120"><path d="M60 12c-26.508 0-48 21.492-48 48 0 22.492 15.488 41.313 36.367 46.52-.222-.649-.367-1.399-.367-2.332v-8.204h-6.031c-3.285 0-6.203-1.414-7.621-4.035-1.57-2.918-1.844-7.379-5.739-10.105-1.156-.906-.277-1.946 1.055-1.805 2.461.695 4.5 2.387 6.422 4.89 1.91 2.508 2.809 3.075 6.383 3.075 1.73 0 4.324-.102 6.761-.484 1.313-3.332 3.583-6.399 6.356-7.848-15.984-1.645-23.613-9.598-23.613-20.39 0-4.65 1.98-9.145 5.343-12.934-1.105-3.758-2.492-11.426.422-14.348 7.196 0 11.543 4.664 12.586 5.926A35.895 35.895 0 0161.98 36c4.145 0 8.094.695 11.688 1.934C74.699 36.68 79.051 32 86.262 32c2.925 2.926 1.523 10.625.406 14.375 3.344 3.781 5.312 8.266 5.312 12.906 0 10.785-7.617 18.735-23.578 20.387C72.797 81.961 76 88.398 76 93.254v10.933c0 .418-.094.715-.14 1.075C94.562 98.703 108 80.945 108 60c0-26.508-21.492-48-48-48zm0 0" fill="#8130a3"/></svg>