<svg xmlns="http://www.w3.org/2000/svg" width="128" height="128"><path d="M88.617 4c-.164.008-.289.05-.375.133L73.382 21.78l-3.03 10.422a198.218 198.218 0 00-6.368-.094C48.54 32.11 36 33.746 36 35.773c0 4.84 55.96 4.84 55.96 0 0-1.5-6.698-2.765-16.358-3.367L78 23.828 91.898 7.11l.024-.023c.312-.324-.297-1.297-1.29-2.149-.741-.64-1.527-.957-2.015-.937zM69.211 36.305l-.055.164c-.023.02-.023.047-.023.07 0 .3 1.21.547 2.687.547 1.477 0 2.696-.246 2.696-.547l.046-.187c.387.14.602.3.602.484 0 .484-1.5.879-3.367.86-1.817 0-3.32-.368-3.32-.852 0-.207.296-.399.734-.54zm22.437 1.375c-7.402 3.949-47.847 3.976-55.28.054l3.288 28.93c1.43-4.613 5.04-10.84 9.688-12.727 1.523-.624 3.07-.62 4.523.211 1.262.692 2.324 2.145 2.446 2.72.292 1.5-.481 2.093-1.086 2.093-.727 0-1.286-1.055-1.649-1.68-.992-1.683-2.492-1.758-4.094-.648-1.672 1.152-3.125 3.09-4.14 4.773-1.235 2.028-2.278 4.266-2.907 6.5-.363 1.293-.695 3.364-.14 4.586.242.508.601.828 1.187.828 1.211 0 2.973-1.52 3.82-2.328 1.09-1.035 2.493-2.652 3.024-3.687l1.266-3.57c.629-1.567 2.39-1.294 2.39 0 0 2.35-.89 3.136-2.414 8a933.745 933.745 0 00-1.843 5.953c-.168.644-.825 1.726-1.524 1.726-.293 0-.504-.098-.625-.281-.242-.324-.219-1.215-.195-1.445.047-.735 1.523-5.122 1.765-5.813-.484.508-.992 1.02-1.546 1.523-1.309 1.176-3.41 2.72-5.204 2.72-.824 0-1.351-.212-1.859-.555l1.836 18.351c.484 1.152 9.492 3.945 21.352 3.945 11.882 0 20.882-2.812 21.343-3.945l2.64-21.805c-1.378 1.2-2.972 2.68-4.741 3.414-1.309.532-4.211.872-4.211-1.32 0-1.2 2.203-3.41 3.484-4.953.34-.39 1.133-1.36 1.133-1.867 0-.668-1.45-.516-2.828.57-.777.625-1.504 1.457-2.11 2.242-1.039 1.383-1.593 2.578-2.054 3.57-1.5 3.274-.992 1.981-2.203 5.07-1.211 3.067-1.016 2.72-1.258 3.228-.215.44-.531.812-.969 1.039-.46.23-1.09.207-1.476-.07-.215-.141-.32-.442-.32-.852 0-.207.03-.418.077-.625.364-1.407 1.891-4.172 3.633-7.907.387-.851.238-.597.188-.53-1.5 1.382-2.64 2.054-3.485 2.421-1.402.602-3.148.598-3.507-.945-.024-.094-.024-.188-.047-.281-2.856 2.12-5.88 2.695-4.836-1.868-1.114 1.89-3.055 3.438-5.43 3.438-.992 0-1.719-.32-2.078-1.172-.555-1.27.312-3.441 1.11-5.492.41-1.035.972-2.281 1.726-3.735.387-.785 1.012-1.246 1.836-1.039.144.047.27.098.39.164.63.414.387 1.032.07 1.657-.921 1.726-1.718 2.996-2.25 4.796-.214.762-.488 2.079.36 2.079.578 0 1.137-.188 1.672-.555 1.113-.785 2.008-1.957 2.687-3.11.485-.828 1.067-1.91 1.36-2.835.12-.391.27-.762.437-1.11.27-.574.625-1.172 1.258-1.172a.98.98 0 01.774.344c.41.508.32 1.031.101 1.586-.484 1.293-1.137 2.45-1.672 3.852-.316.808-.656 1.843-.656 2.695 0 .785.895.598 1.648.273.579-.254 1.16-.64 1.649-1.03.293-1.13.215-.88 6.39-15.727.317-.762.899-1.086 1.477-1.086.293 0 .531.097.773.257.41.301.418.938.25 1.422-.167.442-.148.301-1.093 2.422-1.262 2.79-2.078 4.801-3.196 7.36-.46 1.058-1.863 4.355-2.101 5.14-.145.508-.317 1.336.242 1.336 1.309 0 4.672-3.023 5.594-3.922.047-.066.12-.094.219-.14.144-.442.285-.848.406-1.266.34-.875.656-1.898 1.289-2.61.191-.23.41-.367.648-.367.676 0 1.016.274 1.016.922 0 .254-.164 1.176-.266 1.43.34-.344.7-.688 1.086-1.031 3.633-3.203 6.219-1.57 6.219.047 0 1.703-2.152 4.074-3.336 5.39-.387.442-1.187 1.246-1.21 1.477 0 .3.214.422.53.422.485 0 1.551-.809 1.938-1.086 1.21-.899 2.851-2.281 4.016-3.25zm-47.93 58.445l3.61 5.86 1.406 18.304c0 2.05 6.848 3.711 15.274 3.711 8.426 0 15.273-1.66 15.273-3.71l1.117-18.493 3.407-5.672c-9.59 3.852-30.11 3.988-40.086 0zm0 0" fill="#e74c3c"/></svg>