<svg xmlns="http://www.w3.org/2000/svg" width="512" height="512" viewBox="0 0 176 176"><g data-name="Layer 2"><g data-name="Adobe Illustrator"><rect width="176" height="176" fill="#36261a" rx="40.66" data-original="#36261a"/><path fill="#ff7f18" d="M135.34 5A35.7 35.7 0 01171 40.66v94.68A35.7 35.7 0 01135.34 171H40.66A35.7 35.7 0 015 135.34V40.66A35.7 35.7 0 0140.66 5zm0-5H40.66A40.65 40.65 0 000 40.66v94.68A40.65 40.65 0 0040.66 176h94.68A40.65 40.65 0 00176 135.34V40.66A40.65 40.65 0 00135.34 0z" data-original="#ff7f18"/><g fill="#ff7f18"><path d="M78.69 67.08H75.6l-.36 1.54c-.7 3-3.35 11.5-7.87 25.3l-.86 2.63h21.61L87.39 94c-.25-.88-1.48-4.66-3.76-11.55C81.4 75.7 79.91 71 79.2 68.53zm4 25.47H72c2.35-7.12 4.1-12.62 5.31-16.55.7 2.17 1.54 4.76 2.52 7.74 1.45 4.33 2.35 7.09 2.91 8.81z" data-original="#ff7f18"/><path d="M86.36 59.58l-.17-.36a2.8 2.8 0 00-2.43-1.41h-13a2.47 2.47 0 00-2.63 2.44 13.22 13.22 0 01-.63 4.29l-18.78 53.73a2.66 2.66 0 00.34 2.45 2.63 2.63 0 002.21 1h9.45a2.79 2.79 0 002.93-2.24l4.72-14.23h18l5 14.49v.13a2.92 2.92 0 002.74 1.85h10.62a2.53 2.53 0 002.15-1 2.6 2.6 0 00.27-2.46zm8.58 58.17l-5.71-16.47H65.48L60 117.75h-6.86l18.08-51.62a14.18 14.18 0 00.85-4.32h10.84l19.9 55.94zm24.46-47.3a7.91 7.91 0 005.82-2.21 7.91 7.91 0 002.21-5.82 8.12 8.12 0 00-2.17-5.79 7.62 7.62 0 00-5.77-2.33 8.08 8.08 0 10-.09 16.15zm-2.91-11a4 4 0 013-1.12 3.67 3.67 0 012.86 1.08 4.16 4.16 0 011.08 3 4 4 0 11-6.94-3zm7.86 14.47h-10a2.63 2.63 0 00-2.72 2.72v42.3a2.69 2.69 0 002.81 2.81h9.9a2.64 2.64 0 002.72-2.72V76.64a2.63 2.63 0 00-2.71-2.72zm-1.28 43.83h-7.43V77.92h7.43z" data-original="#ff7f18"/></g></g></g></svg>