<svg xmlns="http://www.w3.org/2000/svg" width="512" height="512" viewBox="0 0 32 32"><g data-name="Layer 16" fill="#3c375b"><path d="M23 14a9.01 9.01 0 00-8.932 7.941 35.008 35.008 0 01-8.848-.6 1 1 0 10-.44 1.952A34.222 34.222 0 0012 24c.694 0 1.376-.023 2.05-.057a8.979 8.979 0 002.918 5.717A35.484 35.484 0 0112 30c-6.046 0-9.728-1.329-10-2V14.383c.048.023.107.041.156.064q.352.162.745.3c.1.036.2.07.3.1q.417.138.866.257c.068.018.132.038.2.055.369.093.751.176 1.141.252.1.019.2.035.305.054.3.054.609.105.919.15.122.017.242.035.364.051q.531.071 1.062.125l.155.017c.4.04.806.071 1.2.1l.331.019c.3.017.584.03.868.041l.328.011a40.025 40.025 0 004.138-.099 1 1 0 00-.154-1.994C13.98 13.963 13 14 12 14c-6.046 0-9.728-1.329-10-2V6.383c.048.023.107.041.156.064q.352.162.745.3c.1.036.2.07.3.1q.417.138.866.257c.068.018.132.038.2.055.369.093.751.176 1.141.252.1.019.2.035.305.054.3.054.609.1.919.15.122.017.242.035.364.051q.531.07 1.062.125l.155.017c.4.04.806.071 1.2.1l.331.019c.3.017.584.03.868.041l.328.011c.367.01.725.017 1.061.017a34.222 34.222 0 007.22-.709 1 1 0 00-.44-1.952A32.145 32.145 0 0112 6a39.23 39.23 0 01-1.566-.034C5.369 5.765 2.3 4.63 2.011 4.016 2.366 3.3 6.028 2 12 2c6.043 0 9.727 1.33 10 2v7a1 1 0 002 0V4c0-3.158-7.543-4-12-4S0 .842 0 4v24c0 3.158 7.543 4 12 4a34.222 34.222 0 007.22-.709 1.038 1.038 0 00.144-.065A9 9 0 1023 14zm0 16a7 7 0 117-7 7.008 7.008 0 01-7 7z" data-original="#000000"/><path d="M24.293 24.293l-.293.293V19a1 1 0 00-2 0v5.586l-.293-.293a1 1 0 00-1.414 1.414l2 2a1 1 0 001.087.217 1.017 1.017 0 00.293-.2c.009-.009.022-.012.031-.021l2-2a1 1 0 00-1.414-1.414z" data-original="#000000"/><circle cx="5" cy="10" r="1" data-original="#000000"/><circle cx="5" cy="18" r="1" data-original="#000000"/><circle cx="5" cy="26" r="1" data-original="#000000"/></g></svg>