<svg xmlns="http://www.w3.org/2000/svg" width="512" height="512" viewBox="0 0 64 64"><path fill="#f0bc5e" d="M32 15H12c-1.103 0-2-.897-2-2V7c0-1.103.897-2 2-2h20c1.103 0 2 .897 2 2v6c0 1.103-.897 2-2 2zm.998 15.723c.287-.403.591-.791.913-1.165A1.98 1.98 0 0034 29v-6c0-1.103-.897-2-2-2H12c-1.103 0-2 .897-2 2v6c0 1.103.897 2 2 2h20c.365 0 .703-.106.998-.277zM16 42c1.48 0 2.872.364 4.103.996A12.048 12.048 0 0126.221 37H12c-1.103 0-2 .897-2 2v5.305A8.955 8.955 0 0116 42z" data-original="#f0bc5e"/><path d="M55.375 12.219l1.25 1.562L62.601 9l-5.976-4.781-1.25 1.562L58.149 8H42v2h16.149zm-7.75 8L44.851 18H61v-2H44.851l2.774-2.219-1.25-1.562L40.399 17l5.976 4.781zM29.249 41.22l-.498-1.937a8.975 8.975 0 00-2.11.841l.969 1.749a7.038 7.038 0 011.639-.653zM31 39v2c3.859 0 7 3.14 7 7 0 .298-.019.591-.054.879l1.984.242c.047-.374.07-.751.07-1.121 0-4.962-4.037-9-9-9zM10 51c0 .834.168 1.642.5 2.4l1.832-.801A4.004 4.004 0 0116 47v-2c-3.309 0-6 2.691-6 6zm10 0c-1.654 0-3 1.346-3 3s1.346 3 3 3 3-1.346 3-3-1.346-3-3-3zm0 4a1.001 1.001 0 010-2 1.001 1.001 0 010 2zm8-4c-1.654 0-3 1.346-3 3s1.346 3 3 3 3-1.346 3-3-1.346-3-3-3zm0 4a1.001 1.001 0 010-2 1.001 1.001 0 010 2zm8-4c-1.654 0-3 1.346-3 3s1.346 3 3 3 3-1.346 3-3-1.346-3-3-3zm0 4a1.001 1.001 0 010-2 1.001 1.001 0 010 2zM14 9h2v2h-2zm4 0h2v2h-2z" data-original="#000000"/><path d="M63 40c0-9.374-7.626-17-17-17-2.868 0-5.598.722-8 2.007V6c0-2.757-2.243-5-5-5H11C8.243 1 6 3.243 6 6v45.083A6.01 6.01 0 001 57c0 3.309 2.691 6 6 6h36c3.985 0 7.29-2.932 7.892-6.751C58.052 54.099 63 47.524 63 40zm-19.041 7a12.896 12.896 0 00-2.022-6h11.046c-.068 2.124-.354 4.162-.822 6zm7.592 2a15.713 15.713 0 01-1.262 2.721A8.037 8.037 0 0048.276 49zm-.005-18H40.441c1.297-3.636 3.336-6 5.559-6 2.232 0 4.254 2.387 5.546 6zm-13.227 0h-4.296a14.994 14.994 0 016.875-5.099c-1.041 1.326-1.921 3.053-2.579 5.099zm-5.563 2h5.019a29.472 29.472 0 00-.597 3.575 12.892 12.892 0 00-5.32-1.534c.248-.71.554-1.388.898-2.041zm7.079 0h12.324c.462 1.821.746 3.858.816 6H40.354c-.399-.414-.82-.807-1.27-1.166.121-1.721.377-3.352.751-4.834zm21.114 6h-5.975c-.063-2.139-.322-4.16-.752-6h5.034a14.878 14.878 0 011.693 6zm-5.966 2h5.975a14.935 14.935 0 01-1.7 6h-5.05a30.42 30.42 0 00.775-6zm2.989-10h-4.308c-.658-2.023-1.528-3.762-2.566-5.089A15.047 15.047 0 0157.972 31zm-27.448 2H8V19h28v7.273A16.965 16.965 0 0030.524 33zM11 3h22c1.654 0 3 1.346 3 3v11H8V6c0-1.654 1.346-3 3-3zM8 35h21.783l-.02.067a13.049 13.049 0 00-10.118 6.625A9.846 9.846 0 0016 41c-3.273 0-6.175 1.588-8 4.026zm35 26H7c-2.206 0-4-1.794-4-4a4.002 4.002 0 013.905-3.995l.154.001.477-.003.641.003-.124-1.111A8.256 8.256 0 018 51c0-4.411 3.589-8 8-8 1.275 0 2.502.298 3.646.886l.929.477.437-.949C22.804 39.518 26.725 37 31 37c6.065 0 11 4.935 11 11v1h1c3.309 0 6 2.691 6 6s-2.691 6-6 6zm8.092-6.912C52.134 52.751 53 51.005 53.651 49h4.334a14.97 14.97 0 01-6.893 5.088z" data-original="#000000"/><path d="M24 25h2v2h-2zm4 0h2v2h-2z" data-original="#000000"/></svg>