<svg xmlns="http://www.w3.org/2000/svg" width="512" height="512"><linearGradient id="a" x1="255.999" x2="256.001" y1="511.997" y2=".003" gradientUnits="userSpaceOnUse"><stop offset="0" stop-color="#6c54a3"/><stop offset="1" stop-color="#00b1d2"/></linearGradient><path fill="url(#a)" fill-rule="evenodd" d="M340.892 388.244a8.012 8.012 0 01-3.185 6.388L297.9 424.713a8 8 0 11-9.648-12.762l31.368-23.707-31.368-23.7a8 8 0 119.648-12.757l39.808 30.081a8.006 8.006 0 013.185 6.378zm-115.581 34.912a8.006 8.006 0 01-11.21 1.557l-39.813-30.081a8.01 8.01 0 010-12.766l39.812-30.081a8 8 0 119.648 12.757l-31.368 23.7 31.368 23.707a8.011 8.011 0 011.562 11.2zm59.7-78.183a8 8 0 00-14.512-6.761L226.99 431.52a8 8 0 0014.507 6.766l43.513-93.313zM255.556 245.3a85.348 85.348 0 0023.2-3.222l4.2 15.71-26.227 17.461-27.472-18.291 3.93-14.658a85.141 85.141 0 0022.367 3zm-66.374-106.669c.458.014.915.014 1.377.014 43.541 0 75.089-15.682 93.842-46.649 3.94-3.8 7.317-5.383 10.039-4.695 3.648.934 13.352 7.2 24.528 45.451a6.547 6.547 0 00.3.84 69.07 69.07 0 01-105.82 81.4c-23.112-17.776-32.661-48.518-24.268-76.362zm-27.094 17.994a14.716 14.716 0 019.629-13.791 87.146 87.146 0 00-.807 27.269 14.746 14.746 0 01-8.822-13.478zm-2.878-72.14c-2.161 14-.3 28.741 5.52 43.9a30.529 30.529 0 0112.07-2.485h.2a7.978 7.978 0 016.831-3.387c41.479 1.609 70.857-11.71 87.336-39.568a8.422 8.422 0 011.2-1.552c8.487-8.582 17.239-11.809 25.99-9.6 14.007 3.538 25.24 20.773 35.261 54.108h5.987a30.431 30.431 0 016.411.685c1.057-5.063 2.01-10.3 2.788-15.645q.453-3.057.883-5.77c2.387-15.408 3.278-21.168-4.1-35.067A101.989 101.989 0 00159.21 84.485zm180.658 86.84a84.739 84.739 0 00-1.26-29.42h1a14.711 14.711 0 01.259 29.42zM301.2 271.262c-3.213-.769-5.543-1.279-7.2-1.609l-22.834 15.2 13.823 9.2 16.21-22.791zm93.007 62.35c-2.01-34.4-8.978-39.54-40.21-48.258-15.451-4.312-27.226-7.511-36.2-9.879-.118.189-.226.377-.368.571l-16.88 23.74h64.11a22.686 22.686 0 0122.66 22.669v69.95h6.128c.028-19.55.293-39.289.76-58.793zm-253.53 129.48h230.645V322.455a6.675 6.675 0 00-6.662-6.671H147.34a6.675 6.675 0 00-6.662 6.671v140.637zm247.2 26.231a6.674 6.674 0 01-6.661 6.671H130.78a6.674 6.674 0 01-6.661-6.671V479.1h263.762v10.228zm-269.33-96.918h6.133v-69.95a22.683 22.683 0 0122.66-22.669h65.56l-17.507-24.622c-9.11 2.391-21.24 5.68-37.389 10.19-31.232 8.718-38.205 13.861-40.21 48.258.468 19.5.727 39.243.755 58.793zm138.184-97.95l8 5.331h-16zm-37.591-25.014c-1.51.264-3.769.74-7.1 1.524l16.418 23.088 13.832-9.2-23.15-15.413zm-65.441.505c-18.1 5.048-30.2 9.78-38.478 19.008-8.275 9.209-12.162 21.98-13.422 44.068-.009.222-.019.43-.009.652a2604.2 2604.2 0 01.759 66.719 7.974 7.974 0 008 8.01h14.13v54.689h-8.563a8 8 0 00-8 8v18.23A22.694 22.694 0 00130.78 512h250.44a22.7 22.7 0 0022.659-22.674v-18.23a8 8 0 00-8-8h-8.559V408.4h14.129a7.974 7.974 0 008-8.01c-.033-22.132.217-44.579.759-66.719.01-.222 0-.43-.009-.652-1.264-22.088-5.152-34.859-13.422-44.068-8.28-9.228-20.381-13.96-38.479-19.008-36.421-10.172-52.239-14.111-59.712-15.673l-4.827-18.031a84.662 84.662 0 0042.39-48.9h3.458a30.7 30.7 0 0020.97-53.136 7.775 7.775 0 00.51-1.552 279.843 279.843 0 003.552-19.381c.3-2 .59-3.878.859-5.647 2.562-16.484 4.1-26.425-5.779-45.017a117.986 117.986 0 00-215.87 17.359 8.006 8.006 0 00-.321 1.288c-3.038 18.541-.269 37.931 8.214 57.651a30.684 30.684 0 0023.158 48.372 84.8 84.8 0 0043.239 49.358l-4.732 17.639c-7.467 1.562-23.286 5.501-59.707 15.673z" data-original="url(#a)"/></svg>