<svg xmlns="http://www.w3.org/2000/svg" width="512" height="512" class="hovered-paths"><linearGradient id="a" x1="255.751" x2="255.752" y1="512.415" y2=".417" gradientUnits="userSpaceOnUse"><stop stop-color="#6c54a3" offset="0"/><stop stop-color="#3c375b" offset="0"/></linearGradient><g fill-rule="evenodd"><path fill="url(#a)" d="M255.754.417c141.376 0 256 114.587 256 256.035 0 141.376-114.623 255.963-256 255.963s-256-114.587-256-255.963C-.249 115 114.363.417 255.754.417z" data-original="url(#a)" class="hovered-path"/><path fill="#fff" d="M105.908 146.482a12.668 12.668 0 00-12.656 12.653v31.6l157.254 71.687a12.16 12.16 0 0010.494 0l157.251-71.684v-31.6a12.666 12.666 0 00-12.651-12.656zM405.6 366.349H105.908A12.668 12.668 0 0193.252 353.7V199.515l153.936 70.175a20.1 20.1 0 0017.127 0l153.936-70.175V353.7a12.665 12.665 0 01-12.651 12.649z" data-original="#ffffff"/></g></svg>